<mxfile host="app.diagrams.net" agent="Mozilla/5.0 (Windows NT 10.0; Win64; x64) AppleWebKit/537.36 (KHTML, like Gecko) Chrome/130.0.0.0 Safari/537.36" version="24.8.6">
  <diagram name="PÃ¡gina-1" id="UOtgKLbIlTYF0dPx8f3Z">
    <mxGraphModel dx="2234" dy="738" grid="0" gridSize="10" guides="1" tooltips="1" connect="1" arrows="1" fold="1" page="0" pageScale="1" pageWidth="827" pageHeight="1169" math="0" shadow="0">
      <root>
        <mxCell id="0" />
        <mxCell id="1" parent="0" />
        <mxCell id="bB6B98M6eBiy5riYellN-5" value="&lt;font color=&quot;#2f5b7c&quot;&gt;Inventory Domain&lt;/font&gt;" style="swimlane;horizontal=0;whiteSpace=wrap;html=1;dashed=1;strokeColor=#2F5B7C;dashPattern=12 12;" parent="1" vertex="1">
          <mxGeometry x="-98" y="243" width="446" height="386" as="geometry" />
        </mxCell>
        <mxCell id="Z36HARrkBUyqiJneXb2r-27" value="" style="group" parent="bB6B98M6eBiy5riYellN-5" vertex="1" connectable="0">
          <mxGeometry x="98" y="4" width="227" height="133" as="geometry" />
        </mxCell>
        <mxCell id="Z36HARrkBUyqiJneXb2r-25" value="" style="rounded=1;whiteSpace=wrap;html=1;strokeColor=#FF0000;gradientColor=none;glass=0;shadow=1;" parent="Z36HARrkBUyqiJneXb2r-27" vertex="1">
          <mxGeometry y="24" width="227" height="109" as="geometry" />
        </mxCell>
        <mxCell id="Z36HARrkBUyqiJneXb2r-9" value="" style="group" parent="Z36HARrkBUyqiJneXb2r-27" vertex="1" connectable="0">
          <mxGeometry x="12" y="35" width="111" height="81" as="geometry" />
        </mxCell>
        <mxCell id="bB6B98M6eBiy5riYellN-8" value="" style="aspect=fixed;sketch=0;html=1;dashed=0;whitespace=wrap;verticalLabelPosition=bottom;verticalAlign=top;fillColor=#2875E2;strokeColor=#ffffff;points=[[0.005,0.63,0],[0.1,0.2,0],[0.9,0.2,0],[0.5,0,0],[0.995,0.63,0],[0.72,0.99,0],[0.5,1,0],[0.28,0.99,0]];shape=mxgraph.kubernetes.icon2;kubernetesLabel=1;prIcon=api" parent="Z36HARrkBUyqiJneXb2r-9" vertex="1">
          <mxGeometry x="30.5" y="21" width="50" height="48" as="geometry" />
        </mxCell>
        <mxCell id="bB6B98M6eBiy5riYellN-9" value="Inventory.Api" style="text;html=1;align=center;verticalAlign=middle;resizable=0;points=[];autosize=1;strokeColor=none;fillColor=none;" parent="Z36HARrkBUyqiJneXb2r-9" vertex="1">
          <mxGeometry x="12" width="87" height="26" as="geometry" />
        </mxCell>
        <mxCell id="bB6B98M6eBiy5riYellN-22" value="" style="group" parent="Z36HARrkBUyqiJneXb2r-27" vertex="1" connectable="0">
          <mxGeometry x="149" y="40.75" width="61.99999999999994" height="76.5" as="geometry" />
        </mxCell>
        <mxCell id="bB6B98M6eBiy5riYellN-19" value="" style="shape=image;verticalLabelPosition=bottom;labelBackgroundColor=default;verticalAlign=top;aspect=fixed;imageAspect=0;image=https://cdn-icons-png.flaticon.com/512/6470/6470816.png;" parent="bB6B98M6eBiy5riYellN-22" vertex="1">
          <mxGeometry x="9.449999999999989" y="22.5" width="43.1" height="46.5" as="geometry" />
        </mxCell>
        <mxCell id="bB6B98M6eBiy5riYellN-20" value="&lt;b&gt;RDBMS&lt;/b&gt;" style="text;html=1;align=center;verticalAlign=middle;resizable=0;points=[];autosize=1;strokeColor=none;fillColor=none;" parent="bB6B98M6eBiy5riYellN-22" vertex="1">
          <mxGeometry width="62" height="26" as="geometry" />
        </mxCell>
        <mxCell id="bB6B98M6eBiy5riYellN-28" value="" style="endArrow=classic;html=1;rounded=0;exitX=0.995;exitY=0.63;exitDx=0;exitDy=0;exitPerimeter=0;entryX=0;entryY=0.5;entryDx=0;entryDy=0;" parent="Z36HARrkBUyqiJneXb2r-27" source="bB6B98M6eBiy5riYellN-8" target="bB6B98M6eBiy5riYellN-19" edge="1">
          <mxGeometry width="50" height="50" relative="1" as="geometry">
            <mxPoint x="667" y="-52" as="sourcePoint" />
            <mxPoint x="717" y="-102" as="targetPoint" />
          </mxGeometry>
        </mxCell>
        <mxCell id="Z36HARrkBUyqiJneXb2r-26" value="&lt;b&gt;Inventory Microservice&lt;/b&gt;" style="text;html=1;align=center;verticalAlign=middle;whiteSpace=wrap;rounded=0;" parent="Z36HARrkBUyqiJneXb2r-27" vertex="1">
          <mxGeometry x="42" width="151" height="30" as="geometry" />
        </mxCell>
        <mxCell id="Z36HARrkBUyqiJneXb2r-28" value="" style="group" parent="bB6B98M6eBiy5riYellN-5" vertex="1" connectable="0">
          <mxGeometry x="99" y="237" width="227" height="133" as="geometry" />
        </mxCell>
        <mxCell id="Z36HARrkBUyqiJneXb2r-29" value="" style="rounded=1;whiteSpace=wrap;html=1;dashed=1;" parent="Z36HARrkBUyqiJneXb2r-28" vertex="1">
          <mxGeometry y="24" width="227" height="109" as="geometry" />
        </mxCell>
        <mxCell id="Z36HARrkBUyqiJneXb2r-30" value="" style="group" parent="Z36HARrkBUyqiJneXb2r-28" vertex="1" connectable="0">
          <mxGeometry x="12" y="35" width="143" height="81" as="geometry" />
        </mxCell>
        <mxCell id="Z36HARrkBUyqiJneXb2r-31" value="" style="aspect=fixed;sketch=0;html=1;dashed=0;whitespace=wrap;verticalLabelPosition=bottom;verticalAlign=top;fillColor=#2875E2;strokeColor=#ffffff;points=[[0.005,0.63,0],[0.1,0.2,0],[0.9,0.2,0],[0.5,0,0],[0.995,0.63,0],[0.72,0.99,0],[0.5,1,0],[0.28,0.99,0]];shape=mxgraph.kubernetes.icon2;kubernetesLabel=1;prIcon=api" parent="Z36HARrkBUyqiJneXb2r-30" vertex="1">
          <mxGeometry x="30.5" y="21" width="50" height="48" as="geometry" />
        </mxCell>
        <mxCell id="Z36HARrkBUyqiJneXb2r-32" value="SpotLocator.Api" style="text;html=1;align=center;verticalAlign=middle;resizable=0;points=[];autosize=1;strokeColor=none;fillColor=none;" parent="Z36HARrkBUyqiJneXb2r-30" vertex="1">
          <mxGeometry x="4" width="103" height="26" as="geometry" />
        </mxCell>
        <mxCell id="Z36HARrkBUyqiJneXb2r-36" value="" style="endArrow=classic;html=1;rounded=0;exitX=0.995;exitY=0.63;exitDx=0;exitDy=0;exitPerimeter=0;entryX=0;entryY=0.5;entryDx=0;entryDy=0;" parent="Z36HARrkBUyqiJneXb2r-28" source="Z36HARrkBUyqiJneXb2r-31" target="bB6B98M6eBiy5riYellN-24" edge="1">
          <mxGeometry width="50" height="50" relative="1" as="geometry">
            <mxPoint x="667" y="-52" as="sourcePoint" />
            <mxPoint x="158.44999999999982" y="86.5" as="targetPoint" />
          </mxGeometry>
        </mxCell>
        <mxCell id="Z36HARrkBUyqiJneXb2r-37" value="&lt;b&gt;Spot Locator Microservice&lt;/b&gt;" style="text;html=1;align=center;verticalAlign=middle;whiteSpace=wrap;rounded=0;" parent="Z36HARrkBUyqiJneXb2r-28" vertex="1">
          <mxGeometry x="25" width="181" height="30" as="geometry" />
        </mxCell>
        <mxCell id="bB6B98M6eBiy5riYellN-27" value="" style="group" parent="Z36HARrkBUyqiJneXb2r-28" vertex="1" connectable="0">
          <mxGeometry x="155" y="41.25" width="59" height="68.5" as="geometry" />
        </mxCell>
        <mxCell id="bB6B98M6eBiy5riYellN-24" value="" style="shape=image;verticalLabelPosition=bottom;labelBackgroundColor=default;verticalAlign=top;aspect=fixed;imageAspect=0;image=https://miro.medium.com/v2/resize:fit:512/0*DzvpbyCPAY8UU3Io.png;" parent="bB6B98M6eBiy5riYellN-27" vertex="1">
          <mxGeometry x="6.75" y="23" width="45.5" height="45.5" as="geometry" />
        </mxCell>
        <mxCell id="bB6B98M6eBiy5riYellN-25" value="&lt;b&gt;NoSQL&lt;/b&gt;" style="text;html=1;align=center;verticalAlign=middle;resizable=0;points=[];autosize=1;strokeColor=none;fillColor=none;" parent="bB6B98M6eBiy5riYellN-27" vertex="1">
          <mxGeometry width="59" height="26" as="geometry" />
        </mxCell>
        <mxCell id="Z36HARrkBUyqiJneXb2r-48" value="" style="sketch=0;outlineConnect=0;fontColor=#232F3E;gradientColor=none;fillColor=#8C4FFF;strokeColor=none;dashed=0;verticalLabelPosition=bottom;verticalAlign=top;align=center;html=1;fontSize=12;fontStyle=0;aspect=fixed;pointerEvents=1;shape=mxgraph.aws4.network_load_balancer;" parent="bB6B98M6eBiy5riYellN-5" vertex="1">
          <mxGeometry x="41" y="68" width="43" height="43" as="geometry" />
        </mxCell>
        <mxCell id="Z36HARrkBUyqiJneXb2r-56" value="" style="endArrow=classic;html=1;rounded=0;entryX=0.005;entryY=0.63;entryDx=0;entryDy=0;entryPerimeter=0;" parent="bB6B98M6eBiy5riYellN-5" source="Z36HARrkBUyqiJneXb2r-48" target="bB6B98M6eBiy5riYellN-8" edge="1">
          <mxGeometry width="50" height="50" relative="1" as="geometry">
            <mxPoint x="-28" y="99" as="sourcePoint" />
            <mxPoint x="51" y="99" as="targetPoint" />
          </mxGeometry>
        </mxCell>
        <mxCell id="Z36HARrkBUyqiJneXb2r-57" value="" style="sketch=0;outlineConnect=0;fontColor=#232F3E;gradientColor=none;fillColor=#8C4FFF;strokeColor=none;dashed=0;verticalLabelPosition=bottom;verticalAlign=top;align=center;html=1;fontSize=12;fontStyle=0;aspect=fixed;pointerEvents=1;shape=mxgraph.aws4.network_load_balancer;" parent="bB6B98M6eBiy5riYellN-5" vertex="1">
          <mxGeometry x="145" y="171.5" width="43" height="43" as="geometry" />
        </mxCell>
        <mxCell id="Z36HARrkBUyqiJneXb2r-58" value="" style="endArrow=classic;html=1;rounded=0;exitX=0.5;exitY=1;exitDx=0;exitDy=0;exitPerimeter=0;" parent="bB6B98M6eBiy5riYellN-5" source="bB6B98M6eBiy5riYellN-8" target="Z36HARrkBUyqiJneXb2r-57" edge="1">
          <mxGeometry width="50" height="50" relative="1" as="geometry">
            <mxPoint x="94" y="100" as="sourcePoint" />
            <mxPoint x="151" y="100" as="targetPoint" />
          </mxGeometry>
        </mxCell>
        <mxCell id="Z36HARrkBUyqiJneXb2r-59" value="" style="endArrow=classic;html=1;rounded=0;" parent="bB6B98M6eBiy5riYellN-5" source="Z36HARrkBUyqiJneXb2r-57" edge="1">
          <mxGeometry width="50" height="50" relative="1" as="geometry">
            <mxPoint x="176" y="118" as="sourcePoint" />
            <mxPoint x="167" y="245" as="targetPoint" />
          </mxGeometry>
        </mxCell>
        <mxCell id="Z36HARrkBUyqiJneXb2r-66" value="" style="endArrow=classic;startArrow=classic;html=1;rounded=0;entryX=0.035;entryY=0.191;entryDx=0;entryDy=0;entryPerimeter=0;exitX=1;exitY=0.5;exitDx=0;exitDy=0;" parent="bB6B98M6eBiy5riYellN-5" edge="1">
          <mxGeometry width="50" height="50" relative="1" as="geometry">
            <mxPoint x="325" y="322" as="sourcePoint" />
            <mxPoint x="493" y="321" as="targetPoint" />
          </mxGeometry>
        </mxCell>
        <mxCell id="Z36HARrkBUyqiJneXb2r-67" value="" style="shape=message;html=1;html=1;outlineConnect=0;labelPosition=center;verticalLabelPosition=bottom;align=center;verticalAlign=top;" parent="bB6B98M6eBiy5riYellN-5" vertex="1">
          <mxGeometry x="342" y="292.5" width="40" height="22" as="geometry" />
        </mxCell>
        <mxCell id="Z36HARrkBUyqiJneXb2r-64" value="" style="shape=message;html=1;html=1;outlineConnect=0;labelPosition=center;verticalLabelPosition=bottom;align=center;verticalAlign=top;" parent="bB6B98M6eBiy5riYellN-5" vertex="1">
          <mxGeometry x="342" y="54" width="40" height="22" as="geometry" />
        </mxCell>
        <mxCell id="bB6B98M6eBiy5riYellN-10" value="&lt;font color=&quot;#f08705&quot;&gt;Order Domain&lt;/font&gt;" style="swimlane;horizontal=0;whiteSpace=wrap;html=1;dashed=1;strokeColor=#F08705;dashPattern=12 12;" parent="1" vertex="1">
          <mxGeometry x="-99" y="117" width="447" height="126" as="geometry">
            <mxRectangle x="-98" y="-2" width="32" height="123" as="alternateBounds" />
          </mxGeometry>
        </mxCell>
        <mxCell id="Z36HARrkBUyqiJneXb2r-11" value="" style="group" parent="bB6B98M6eBiy5riYellN-10" vertex="1" connectable="0">
          <mxGeometry x="120.5" y="22" width="92" height="69" as="geometry" />
        </mxCell>
        <mxCell id="bB6B98M6eBiy5riYellN-11" value="" style="aspect=fixed;sketch=0;html=1;dashed=0;whitespace=wrap;verticalLabelPosition=bottom;verticalAlign=top;fillColor=#2875E2;strokeColor=#ffffff;points=[[0.005,0.63,0],[0.1,0.2,0],[0.9,0.2,0],[0.5,0,0],[0.995,0.63,0],[0.72,0.99,0],[0.5,1,0],[0.28,0.99,0]];shape=mxgraph.kubernetes.icon2;kubernetesLabel=1;prIcon=api" parent="Z36HARrkBUyqiJneXb2r-11" vertex="1">
          <mxGeometry x="20.5" y="21" width="50" height="48" as="geometry" />
        </mxCell>
        <mxCell id="bB6B98M6eBiy5riYellN-12" value="Order Service" style="text;html=1;align=center;verticalAlign=middle;resizable=0;points=[];autosize=1;strokeColor=none;fillColor=none;" parent="Z36HARrkBUyqiJneXb2r-11" vertex="1">
          <mxGeometry width="92" height="26" as="geometry" />
        </mxCell>
        <mxCell id="Z36HARrkBUyqiJneXb2r-8" value="&lt;font color=&quot;#79a1c9&quot;&gt;Client Apps&lt;/font&gt;" style="swimlane;whiteSpace=wrap;html=1;dashed=1;dashPattern=12 12;strokeColor=#79A1C9;" parent="1" vertex="1">
          <mxGeometry x="-613" y="246" width="185" height="173.75" as="geometry" />
        </mxCell>
        <mxCell id="Z36HARrkBUyqiJneXb2r-14" value="" style="group" parent="Z36HARrkBUyqiJneXb2r-8" vertex="1" connectable="0">
          <mxGeometry x="58" y="55" width="69" height="67.75" as="geometry" />
        </mxCell>
        <mxCell id="Z36HARrkBUyqiJneXb2r-13" value="&lt;b&gt;Web App&lt;/b&gt;" style="text;html=1;align=center;verticalAlign=middle;resizable=0;points=[];autosize=1;strokeColor=none;fillColor=none;" parent="Z36HARrkBUyqiJneXb2r-14" vertex="1">
          <mxGeometry width="69" height="26" as="geometry" />
        </mxCell>
        <mxCell id="Z36HARrkBUyqiJneXb2r-12" value="" style="shape=image;verticalLabelPosition=bottom;labelBackgroundColor=default;verticalAlign=top;aspect=fixed;imageAspect=0;image=https://cdn-icons-png.flaticon.com/512/718/718110.png;" parent="Z36HARrkBUyqiJneXb2r-14" vertex="1">
          <mxGeometry x="12" y="22.75" width="45" height="45" as="geometry" />
        </mxCell>
        <mxCell id="Z36HARrkBUyqiJneXb2r-40" value="" style="group" parent="1" vertex="1" connectable="0">
          <mxGeometry x="-311" y="193.38" width="120" height="275" as="geometry" />
        </mxCell>
        <mxCell id="Z36HARrkBUyqiJneXb2r-38" value="" style="rounded=1;whiteSpace=wrap;html=1;dashed=1;dashPattern=12 12;" parent="Z36HARrkBUyqiJneXb2r-40" vertex="1">
          <mxGeometry y="34" width="120" height="241" as="geometry" />
        </mxCell>
        <mxCell id="Z36HARrkBUyqiJneXb2r-39" value="&lt;b&gt;API Gateways / BFF&lt;/b&gt;" style="text;html=1;align=center;verticalAlign=middle;whiteSpace=wrap;rounded=0;" parent="Z36HARrkBUyqiJneXb2r-40" vertex="1">
          <mxGeometry x="2" width="116" height="30" as="geometry" />
        </mxCell>
        <mxCell id="Z36HARrkBUyqiJneXb2r-53" value="" style="group" parent="Z36HARrkBUyqiJneXb2r-40" vertex="1" connectable="0">
          <mxGeometry y="159.62" width="120" height="73.38" as="geometry" />
        </mxCell>
        <mxCell id="Z36HARrkBUyqiJneXb2r-42" value="" style="sketch=0;aspect=fixed;pointerEvents=1;shadow=0;dashed=0;html=1;strokeColor=none;labelPosition=center;verticalLabelPosition=bottom;verticalAlign=top;align=center;fillColor=#00188D;shape=mxgraph.mscae.enterprise.gateway" parent="Z36HARrkBUyqiJneXb2r-53" vertex="1">
          <mxGeometry x="35" y="23.379999999999995" width="50" height="50" as="geometry" />
        </mxCell>
        <mxCell id="Z36HARrkBUyqiJneXb2r-52" value="&lt;b&gt;Web Management&lt;/b&gt;" style="text;html=1;align=center;verticalAlign=middle;resizable=0;points=[];autosize=1;strokeColor=none;fillColor=none;" parent="Z36HARrkBUyqiJneXb2r-53" vertex="1">
          <mxGeometry width="120" height="26" as="geometry" />
        </mxCell>
        <mxCell id="Z36HARrkBUyqiJneXb2r-43" value="" style="endArrow=classic;html=1;rounded=0;exitX=1;exitY=0.5;exitDx=0;exitDy=0;entryX=0.482;entryY=0.444;entryDx=0;entryDy=0;entryPerimeter=0;" parent="1" source="Z36HARrkBUyqiJneXb2r-12" target="Z36HARrkBUyqiJneXb2r-46" edge="1">
          <mxGeometry width="50" height="50" relative="1" as="geometry">
            <mxPoint x="-74" y="388" as="sourcePoint" />
            <mxPoint x="-381" y="346" as="targetPoint" />
          </mxGeometry>
        </mxCell>
        <mxCell id="Z36HARrkBUyqiJneXb2r-46" value="" style="line;strokeWidth=4;direction=south;html=1;" parent="1" vertex="1">
          <mxGeometry x="-354" y="270" width="9" height="157" as="geometry" />
        </mxCell>
        <mxCell id="Z36HARrkBUyqiJneXb2r-50" value="" style="line;strokeWidth=4;direction=south;html=1;" parent="1" vertex="1">
          <mxGeometry x="-143" y="117" width="9" height="427" as="geometry" />
        </mxCell>
        <mxCell id="Z36HARrkBUyqiJneXb2r-51" value="" style="endArrow=classic;html=1;rounded=0;exitX=0.837;exitY=0.291;exitDx=0;exitDy=0;entryX=0;entryY=0.5;entryDx=0;entryDy=0;entryPerimeter=0;exitPerimeter=0;" parent="1" source="Z36HARrkBUyqiJneXb2r-46" target="Z36HARrkBUyqiJneXb2r-42" edge="1">
          <mxGeometry width="50" height="50" relative="1" as="geometry">
            <mxPoint x="-488" y="356" as="sourcePoint" />
            <mxPoint x="-339" y="356" as="targetPoint" />
          </mxGeometry>
        </mxCell>
        <mxCell id="Z36HARrkBUyqiJneXb2r-54" value="" style="endArrow=classic;html=1;rounded=0;exitX=1;exitY=0.5;exitDx=0;exitDy=0;entryX=0.667;entryY=0.556;entryDx=0;entryDy=0;entryPerimeter=0;exitPerimeter=0;" parent="1" source="Z36HARrkBUyqiJneXb2r-42" target="Z36HARrkBUyqiJneXb2r-50" edge="1">
          <mxGeometry width="50" height="50" relative="1" as="geometry">
            <mxPoint x="-338" y="411" as="sourcePoint" />
            <mxPoint x="-266" y="411" as="targetPoint" />
          </mxGeometry>
        </mxCell>
        <mxCell id="Z36HARrkBUyqiJneXb2r-55" value="" style="endArrow=classic;html=1;rounded=0;exitX=0.503;exitY=0.259;exitDx=0;exitDy=0;exitPerimeter=0;" parent="1" source="Z36HARrkBUyqiJneXb2r-50" target="Z36HARrkBUyqiJneXb2r-48" edge="1">
          <mxGeometry width="50" height="50" relative="1" as="geometry">
            <mxPoint x="-216" y="411" as="sourcePoint" />
            <mxPoint x="-129" y="412" as="targetPoint" />
          </mxGeometry>
        </mxCell>
        <mxCell id="Z36HARrkBUyqiJneXb2r-60" value="" style="shape=cylinder3;whiteSpace=wrap;html=1;boundedLbl=1;backgroundOutline=1;size=15;fillColor=#f5f5f5;fontColor=#333333;strokeColor=#666666;" parent="1" vertex="1">
          <mxGeometry x="396" y="117" width="60" height="516" as="geometry" />
        </mxCell>
        <mxCell id="Z36HARrkBUyqiJneXb2r-62" value="&lt;b&gt;&lt;font style=&quot;font-size: 20px;&quot;&gt;Event Bus&lt;/font&gt;&lt;/b&gt;" style="text;html=1;align=center;verticalAlign=middle;whiteSpace=wrap;rounded=0;horizontal=0;" parent="1" vertex="1">
          <mxGeometry x="393" y="288" width="60" height="196" as="geometry" />
        </mxCell>
        <mxCell id="Z36HARrkBUyqiJneXb2r-63" value="" style="endArrow=classic;startArrow=classic;html=1;rounded=0;entryX=0.035;entryY=0.191;entryDx=0;entryDy=0;entryPerimeter=0;exitX=1;exitY=0.5;exitDx=0;exitDy=0;" parent="1" source="Z36HARrkBUyqiJneXb2r-25" target="Z36HARrkBUyqiJneXb2r-62" edge="1">
          <mxGeometry width="50" height="50" relative="1" as="geometry">
            <mxPoint x="-166" y="443" as="sourcePoint" />
            <mxPoint x="-116" y="393" as="targetPoint" />
          </mxGeometry>
        </mxCell>
      </root>
    </mxGraphModel>
  </diagram>
</mxfile>
